<svg width="15" height="18" viewBox="0 0 15 18" fill="none" xmlns="http://www.w3.org/2000/svg">
<path d="M5.85385 5.04736L9.24742 5.04736" stroke="#4C57FF" stroke-width="1.46107" stroke-linecap="round" stroke-linejoin="round"/>
<path d="M9.25302 5.12039C10.9805 6.32073 13.9558 9.8204 13.9558 12.4189C13.9558 15.0496 12.8538 17.1819 7.5248 17.1819C2.19577 17.1819 1.09384 15.0496 1.09384 12.4189C1.09384 9.8204 4.06906 6.32073 5.79658 5.12039C5.36641 4.29959 2.93828 3.01528 3.26904 1.99542C3.76764 0.45808 11.2403 0.393561 11.7752 1.99367C12.1154 3.01161 9.68196 4.30136 9.25302 5.12039Z" stroke="#4C57FF" stroke-width="1.46107" stroke-linecap="round" stroke-linejoin="round"/>
<path d="M7.48642 8.70538V7.65674" stroke="#4C57FF" stroke-width="1.46107" stroke-linecap="round" stroke-linejoin="round"/>
<path d="M9.22409 8.70435H6.67152C6.42366 8.70435 6.18595 8.80304 6.01069 8.97872C5.83543 9.15441 5.73697 9.39268 5.73697 9.64113C5.7355 9.82811 5.79074 10.0111 5.89536 10.1659C5.99997 10.3207 6.14904 10.44 6.3228 10.508L8.63826 11.0883C8.84277 11.1674 9.01302 11.3161 9.11925 11.5083C9.22547 11.7005 9.2609 11.924 9.21935 12.1398C9.1778 12.3555 9.06191 12.5498 8.89194 12.6885C8.72197 12.8273 8.50874 12.9018 8.28954 12.8989H5.73697" stroke="#4C57FF" stroke-width="1.46107" stroke-linecap="round" stroke-linejoin="round"/>
<path d="M7.47879 13.9478V12.8992" stroke="#4C57FF" stroke-width="1.46107" stroke-linecap="round" stroke-linejoin="round"/>
</svg>
