<svg width="235" height="131" viewBox="0 0 235 131" fill="none" xmlns="http://www.w3.org/2000/svg">
<path d="M4.28316 13.93C4.28316 14.1313 4.23283 14.3242 4.13217 14.5088C4.03151 14.6891 3.88263 14.8401 3.6855 14.9617C3.49258 15.0834 3.2598 15.1526 2.98719 15.1693V15.6789H2.64747V15.1693C2.26581 15.1358 1.95545 15.0142 1.71639 14.8045C1.47732 14.5906 1.35569 14.32 1.3515 13.9929H1.96174C1.97851 14.1691 2.04352 14.3221 2.15676 14.4522C2.2742 14.5822 2.43777 14.664 2.64747 14.6975V13.1247C2.36647 13.0534 2.13999 12.98 1.96803 12.9045C1.79607 12.829 1.64928 12.7116 1.52765 12.5522C1.40602 12.3929 1.34521 12.179 1.34521 11.9105C1.34521 11.5708 1.46264 11.2898 1.69751 11.0675C1.93657 10.8452 2.25323 10.7215 2.64747 10.6964V10.1742H2.98719V10.6964C3.34369 10.7257 3.63098 10.8411 3.84907 11.0424C4.06716 11.2395 4.19299 11.4974 4.22654 11.8162H3.6163C3.59533 11.6694 3.53032 11.5373 3.42128 11.4198C3.31223 11.2982 3.16754 11.2185 2.98719 11.1808V12.7158C3.264 12.7871 3.48838 12.8605 3.66034 12.936C3.83649 13.0073 3.98328 13.1226 4.10072 13.282C4.22235 13.4414 4.28316 13.6574 4.28316 13.93ZM1.93028 11.8791C1.93028 12.0846 1.9911 12.2419 2.11273 12.3509C2.23435 12.46 2.4126 12.5501 2.64747 12.6214V11.1682C2.42938 11.1892 2.25532 11.2605 2.12531 11.3821C1.99529 11.4995 1.93028 11.6652 1.93028 11.8791ZM2.98719 14.7038C3.21367 14.6786 3.38982 14.5968 3.51564 14.4584C3.64566 14.32 3.71067 14.1544 3.71067 13.9614C3.71067 13.7559 3.64776 13.5987 3.52193 13.4896C3.39611 13.3764 3.21786 13.2862 2.98719 13.2191V14.7038ZM5.25872 11.7281C5.28808 11.3422 5.43697 11.0403 5.70539 10.8222C5.97381 10.6041 6.32192 10.495 6.74972 10.495C7.03491 10.495 7.28027 10.5475 7.48578 10.6523C7.69548 10.753 7.85276 10.8914 7.95761 11.0675C8.06666 11.2437 8.12118 11.4429 8.12118 11.6652C8.12118 11.9252 8.04569 12.1496 7.8947 12.3383C7.74791 12.5271 7.55498 12.6487 7.31592 12.7032V12.7347C7.58853 12.8018 7.80453 12.9339 7.9639 13.131C8.12328 13.3281 8.20296 13.5861 8.20296 13.9048C8.20296 14.1439 8.14844 14.3599 8.0394 14.5528C7.93035 14.7415 7.76678 14.8904 7.54869 14.9995C7.3306 15.1085 7.06847 15.163 6.7623 15.163C6.31773 15.163 5.95284 15.0477 5.66765 14.817C5.38245 14.5822 5.22307 14.2508 5.18952 13.823H5.74314C5.7725 14.0747 5.87525 14.2802 6.0514 14.4396C6.22756 14.5989 6.46242 14.6786 6.75601 14.6786C7.04959 14.6786 7.27188 14.6031 7.42287 14.4522C7.57805 14.297 7.65564 14.0978 7.65564 13.8545C7.65564 13.5399 7.55079 13.3135 7.34108 13.1751C7.13138 13.0367 6.81473 12.9674 6.39112 12.9674H6.24643V12.4893H6.39742C6.78327 12.4851 7.07476 12.4222 7.27188 12.3006C7.469 12.1748 7.56756 11.9818 7.56756 11.7218C7.56756 11.4995 7.49417 11.3213 7.34737 11.1871C7.20477 11.0529 6.99927 10.9857 6.73084 10.9857C6.47081 10.9857 6.26111 11.0529 6.10173 11.1871C5.94236 11.3213 5.84799 11.5016 5.81863 11.7281H5.25872ZM13.5181 10.7781V15.1316H12.9456V11.8854L11.4987 15.1316H11.096L9.64279 11.8791V15.1316H9.0703V10.7781H9.68683L11.2974 14.3767L12.9079 10.7781H13.5181Z" fill="white"/>
<path d="M4.28325 40.5101C4.28325 40.7114 4.23292 40.9043 4.13226 41.0888C4.03161 41.2692 3.88272 41.4202 3.6856 41.5418C3.49267 41.6634 3.2599 41.7326 2.98728 41.7494V42.259H2.64756V41.7494C2.2659 41.7159 1.95554 41.5942 1.71648 41.3845C1.47741 41.1706 1.35579 40.9001 1.35159 40.573H1.96183C1.97861 40.7491 2.04361 40.9022 2.15685 41.0322C2.27429 41.1622 2.43786 41.244 2.64756 41.2776V39.7048C2.36656 39.6335 2.14008 39.5601 1.96812 39.4846C1.79616 39.4091 1.64937 39.2917 1.52774 39.1323C1.40612 38.9729 1.3453 38.759 1.3453 38.4906C1.3453 38.1509 1.46274 37.8699 1.6976 37.6476C1.93667 37.4253 2.25332 37.3016 2.64756 37.2764V36.7543H2.98728V37.2764C3.34378 37.3058 3.63107 37.4211 3.84916 37.6224C4.06726 37.8196 4.19308 38.0775 4.22663 38.3963H3.61639C3.59542 38.2495 3.53041 38.1173 3.42137 37.9999C3.31232 37.8783 3.16763 37.7986 2.98728 37.7609V39.2959C3.26409 39.3672 3.48847 39.4406 3.66043 39.5161C3.83658 39.5874 3.98337 39.7027 4.10081 39.8621C4.22244 40.0215 4.28325 40.2375 4.28325 40.5101ZM1.93037 38.4592C1.93037 38.6647 1.99119 38.822 2.11282 38.931C2.23445 39.04 2.41269 39.1302 2.64756 39.2015V37.7483C2.42947 37.7692 2.25542 37.8405 2.1254 37.9622C1.99538 38.0796 1.93037 38.2453 1.93037 38.4592ZM2.98728 41.2839C3.21376 41.2587 3.38991 41.1769 3.51574 41.0385C3.64575 40.9001 3.71076 40.7345 3.71076 40.5415C3.71076 40.336 3.64785 40.1787 3.52203 40.0697C3.3962 39.9564 3.21796 39.8663 2.98728 39.7992V41.2839ZM5.2022 41.2524C5.73484 40.8246 6.15215 40.4744 6.45413 40.2018C6.7561 39.925 7.00984 39.6377 7.21535 39.3399C7.42506 39.0379 7.52991 38.7423 7.52991 38.4529C7.52991 38.1803 7.4628 37.9664 7.32859 37.8112C7.19858 37.6518 6.98677 37.5721 6.69319 37.5721C6.40799 37.5721 6.18571 37.6623 6.02633 37.8426C5.87115 38.0188 5.78727 38.2558 5.77469 38.5535H5.22107C5.23785 38.0838 5.38044 37.721 5.64886 37.4652C5.91729 37.2093 6.2633 37.0814 6.6869 37.0814C7.11889 37.0814 7.46071 37.2009 7.71235 37.44C7.96819 37.6791 8.09611 38.0083 8.09611 38.4277C8.09611 38.7758 7.99126 39.1155 7.78155 39.4469C7.57604 39.774 7.34117 40.0634 7.07695 40.315C6.81272 40.5625 6.4751 40.8519 6.06408 41.1832H8.22822V41.6613H5.2022V41.2524ZM13.4322 37.3582V41.7117H12.8597V38.4655L11.4128 41.7117H11.0101L9.55687 38.4592V41.7117H8.98438V37.3582H9.60091L11.2114 40.9567L12.822 37.3582H13.4322Z" fill="white"/>
<path d="M4.28325 67.0899C4.28325 67.2912 4.23292 67.4841 4.13226 67.6687C4.03161 67.849 3.88272 68 3.6856 68.1216C3.49267 68.2433 3.2599 68.3125 2.98728 68.3293V68.8388H2.64756V68.3293C2.2659 68.2957 1.95554 68.1741 1.71648 67.9644C1.47741 67.7505 1.35579 67.48 1.35159 67.1528H1.96183C1.97861 67.329 2.04361 67.482 2.15685 67.6121C2.27429 67.7421 2.43786 67.8239 2.64756 67.8574V66.2846C2.36656 66.2133 2.14008 66.1399 1.96812 66.0645C1.79616 65.989 1.64937 65.8715 1.52774 65.7121C1.40612 65.5528 1.3453 65.3389 1.3453 65.0705C1.3453 64.7307 1.46274 64.4497 1.6976 64.2274C1.93667 64.0052 2.25332 63.8814 2.64756 63.8563V63.3341H2.98728V63.8563C3.34378 63.8856 3.63107 64.001 3.84916 64.2023C4.06726 64.3994 4.19308 64.6573 4.22663 64.9761H3.61639C3.59542 64.8293 3.53041 64.6972 3.42137 64.5797C3.31232 64.4581 3.16763 64.3784 2.98728 64.3407V65.8757C3.26409 65.947 3.48847 66.0204 3.66043 66.0959C3.83658 66.1672 3.98337 66.2825 4.10081 66.4419C4.22244 66.6013 4.28325 66.8173 4.28325 67.0899ZM1.93037 65.039C1.93037 65.2445 1.99119 65.4018 2.11282 65.5108C2.23445 65.6199 2.41269 65.7101 2.64756 65.7813V64.3281C2.42947 64.3491 2.25542 64.4204 2.1254 64.542C1.99538 64.6594 1.93037 64.8251 1.93037 65.039ZM2.98728 67.8637C3.21376 67.8385 3.38991 67.7568 3.51574 67.6184C3.64575 67.48 3.71076 67.3143 3.71076 67.1214C3.71076 66.9158 3.64785 66.7586 3.52203 66.6495C3.3962 66.5363 3.21796 66.4461 2.98728 66.379V67.8637ZM5.12041 64.2652V63.743H6.30314V68.2915H5.72436V64.2652H5.12041ZM11.8287 63.9381V68.2915H11.2562V65.0453L9.80926 68.2915H9.40662L7.95338 65.039V68.2915H7.38089V63.9381H7.99742L9.60794 67.5366L11.2185 63.9381H11.8287Z" fill="white"/>
<path d="M4.28325 93.67C4.28325 93.8713 4.23292 94.0642 4.13226 94.2488C4.03161 94.4291 3.88272 94.5801 3.6856 94.7017C3.49267 94.8234 3.2599 94.8926 2.98728 94.9093V95.4189H2.64756V94.9093C2.2659 94.8758 1.95554 94.7541 1.71648 94.5444C1.47741 94.3305 1.35579 94.06 1.35159 93.7329H1.96183C1.97861 93.909 2.04361 94.0621 2.15685 94.1921C2.27429 94.3222 2.43786 94.4039 2.64756 94.4375V92.8647C2.36656 92.7934 2.14008 92.72 1.96812 92.6445C1.79616 92.569 1.64937 92.4516 1.52774 92.2922C1.40612 92.1329 1.3453 91.919 1.3453 91.6505C1.3453 91.3108 1.46274 91.0298 1.6976 90.8075C1.93667 90.5852 2.25332 90.4615 2.64756 90.4363V89.9142H2.98728V90.4363C3.34378 90.4657 3.63107 90.581 3.84916 90.7824C4.06726 90.9795 4.19308 91.2374 4.22663 91.5562H3.61639C3.59542 91.4094 3.53041 91.2773 3.42137 91.1598C3.31232 91.0382 3.16763 90.9585 2.98728 90.9208V92.4558C3.26409 92.5271 3.48847 92.6005 3.66043 92.676C3.83658 92.7473 3.98337 92.8626 4.10081 93.022C4.22244 93.1814 4.28325 93.3974 4.28325 93.67ZM1.93037 91.6191C1.93037 91.8246 1.99119 91.9819 2.11282 92.0909C2.23445 92.2 2.41269 92.2901 2.64756 92.3614V90.9082C2.42947 90.9292 2.25542 91.0005 2.1254 91.1221C1.99538 91.2395 1.93037 91.4052 1.93037 91.6191ZM2.98728 94.4438C3.21376 94.4186 3.38991 94.3368 3.51574 94.1984C3.64575 94.06 3.71076 93.8944 3.71076 93.7014C3.71076 93.4959 3.64785 93.3386 3.52203 93.2296C3.3962 93.1164 3.21796 93.0262 2.98728 92.9591V94.4438ZM5.2714 92.5502C5.2714 91.8288 5.38883 91.2668 5.6237 90.8641C5.85857 90.4573 6.26959 90.2539 6.85676 90.2539C7.43973 90.2539 7.84866 90.4573 8.08353 90.8641C8.31839 91.2668 8.43583 91.8288 8.43583 92.5502C8.43583 93.2841 8.31839 93.8545 8.08353 94.2613C7.84866 94.6682 7.43973 94.8716 6.85676 94.8716C6.26959 94.8716 5.85857 94.6682 5.6237 94.2613C5.38883 93.8545 5.2714 93.2841 5.2714 92.5502ZM7.86963 92.5502C7.86963 92.1853 7.84446 91.877 7.79413 91.6254C7.748 91.3695 7.64944 91.164 7.49845 91.0088C7.35166 90.8537 7.13776 90.7761 6.85676 90.7761C6.57156 90.7761 6.35347 90.8537 6.20248 91.0088C6.05569 91.164 5.95713 91.3695 5.9068 91.6254C5.86067 91.877 5.8376 92.1853 5.8376 92.5502C5.8376 92.9276 5.86067 93.2443 5.9068 93.5001C5.95713 93.756 6.05569 93.9615 6.20248 94.1166C6.35347 94.2718 6.57156 94.3494 6.85676 94.3494C7.13776 94.3494 7.35166 94.2718 7.49845 94.1166C7.64944 93.9615 7.748 93.756 7.79413 93.5001C7.84446 93.2443 7.86963 92.9276 7.86963 92.5502Z" fill="white"/>
<path d="M3.84287 118.904V119.388H1.33272V118.904H3.84287ZM7.74828 120.25C7.74828 120.451 7.69795 120.644 7.59729 120.829C7.49663 121.009 7.34774 121.16 7.15062 121.282C6.95769 121.403 6.72492 121.472 6.45231 121.489V121.999H6.11259V121.489C5.73093 121.456 5.42057 121.334 5.1815 121.124C4.94244 120.91 4.82081 120.64 4.81662 120.313H5.42686C5.44363 120.489 5.50864 120.642 5.62188 120.772C5.73932 120.902 5.90288 120.984 6.11259 121.017V119.445C5.83159 119.373 5.60511 119.3 5.43315 119.224C5.26119 119.149 5.1144 119.031 4.99277 118.872C4.87114 118.713 4.81033 118.499 4.81033 118.23C4.81033 117.891 4.92776 117.61 5.16263 117.387C5.40169 117.165 5.71835 117.041 6.11259 117.016V116.494H6.45231V117.016C6.8088 117.046 7.0961 117.161 7.31419 117.362C7.53228 117.559 7.65811 117.817 7.69166 118.136H7.08142C7.06045 117.989 6.99544 117.857 6.8864 117.74C6.77735 117.618 6.63265 117.538 6.45231 117.501V119.036C6.72912 119.107 6.9535 119.18 7.12546 119.256C7.30161 119.327 7.4484 119.442 7.56584 119.602C7.68746 119.761 7.74828 119.977 7.74828 120.25ZM5.3954 118.199C5.3954 118.404 5.45622 118.562 5.57784 118.671C5.69947 118.78 5.87772 118.87 6.11259 118.941V117.488C5.8945 117.509 5.72044 117.58 5.59043 117.702C5.46041 117.819 5.3954 117.985 5.3954 118.199ZM6.45231 121.024C6.67879 120.998 6.85494 120.917 6.98076 120.778C7.11078 120.64 7.17579 120.474 7.17579 120.281C7.17579 120.076 7.11288 119.918 6.98705 119.809C6.86123 119.696 6.68298 119.606 6.45231 119.539V121.024ZM8.58544 117.425V116.903H9.76817V121.451H9.18938V117.425H8.58544ZM15.2937 117.098V121.451H14.7212V118.205L13.2743 121.451H12.8717L11.4184 118.199V121.451H10.8459V117.098H11.4624L13.073 120.696L14.6835 117.098H15.2937Z" fill="white"/>
<path d="M28.2791 72.5439C32.9032 68.0042 39.0136 64.7917 45.7101 66.3788C49.4029 67.3609 53.6221 71.0347 56.8045 71.7482C59.5168 72.3608 61.2314 70.9698 62.8621 68.4357C64.4917 65.8469 65.6788 62.5531 67.1724 59.8053C70.0258 53.4832 73.6652 48.0629 81.0577 45.8597C88.9878 43.4962 94.5139 52.4566 101.613 51.0186C109.623 49.1847 115.57 32.6621 123.807 31.2147C127.823 30.5051 135.092 37.372 138.878 35.8449C146.88 32.9907 153.785 17.11 162.093 26.6354C166.229 31.2842 167.231 38.6043 172.153 42.5231C179.538 47.0727 183.224 36.637 184.613 31.2147C186.13 24.6703 193.544 11.6065 202.33 19.9167C205.85 23.3094 206.012 24.516 209.746 27.2682C216.988 31.6255 225.129 10.1178 234.056 11.7484" stroke="#4C57FF" stroke-width="1.5" stroke-miterlimit="10" stroke-linecap="round"/>
<path opacity="0.24" d="M234.628 118.242H28.2791V72.1379C32.9419 67.6316 39.0994 64.4353 45.8492 66.0149C49.572 66.9905 53.8211 70.642 57.0362 71.3481C59.7719 71.9521 61.5016 70.577 63.1468 68.059C64.7919 65.4852 65.9858 62.2147 67.49 59.483C70.3666 53.202 74.0789 47.8294 81.4878 45.6295C89.4756 43.2577 95.0532 52.1799 102.207 50.749C110.283 48.9279 116.271 32.5193 124.581 31.0791C128.633 30.3729 134.453 36.8396 138.269 35.3158C146.335 32.4819 154.805 17.0676 163.172 26.5263C167.336 31.1441 168.352 38.41 173.315 42.3031C180.761 46.8188 184.502 32.9931 185.903 27.6041C187.435 21.1001 192.341 11.618 201.196 19.8687C204.74 23.2415 207.017 23.4322 210.787 26.1639C219.029 31.0593 225.9 8.54796 234.628 10.1128V118.242Z" fill="url(#paint0_linear_4001_2147)"/>
<defs>
<linearGradient id="paint0_linear_4001_2147" x1="131.418" y1="34.0001" x2="131.453" y2="118.242" gradientUnits="userSpaceOnUse">
<stop stop-color="#4C57FF"/>
<stop offset="1" stop-color="#4C57FF" stop-opacity="0.11"/>
</linearGradient>
</defs>
</svg>
