<svg width="20" height="19" viewBox="0 0 20 19" fill="none" xmlns="http://www.w3.org/2000/svg">
<path d="M10.2058 2.58969C10.1907 2.55531 10.1419 2.55532 10.1267 2.58969L8.03219 7.34229C8.02784 7.35217 8.01995 7.36005 8.01008 7.36441L3.25672 9.4597C3.22235 9.47485 3.22235 9.52362 3.25672 9.53878L8.01008 11.6341C8.01995 11.6384 8.02784 11.6463 8.03219 11.6562L10.1267 16.4103C10.1419 16.4447 10.1907 16.4447 10.2058 16.4103L12.3019 11.6569C12.3062 11.6471 12.3141 11.6392 12.324 11.6348L17.0766 9.53954C17.111 9.52438 17.111 9.47562 17.0766 9.46046L12.324 7.36517C12.3141 7.36082 12.3062 7.35293 12.3019 7.34306L10.2058 2.58969Z" stroke="white" stroke-width="1.16667"/>
</svg>
